<?xml version="1.0" encoding="UTF-8" standalone="no"?>
<svg
   xmlns:dc="http://purl.org/dc/elements/1.1/"
   xmlns:cc="http://creativecommons.org/ns#"
   xmlns:rdf="http://www.w3.org/1999/02/22-rdf-syntax-ns#"
   xmlns:svg="http://www.w3.org/2000/svg"
   xmlns="http://www.w3.org/2000/svg"
   version="1.1"
   width="450"
   height="164"
   id="svg2">
  <metadata
     id="metadata8">
    <rdf:RDF>
      <cc:Work
         rdf:about="">
        <dc:format>image/svg+xml</dc:format>
        <dc:type
           rdf:resource="http://purl.org/dc/dcmitype/StillImage" />
        <dc:title></dc:title>
      </cc:Work>
    </rdf:RDF>
  </metadata>
  <defs
     id="defs6" />
  <path
     d="m 58.188016,67.353 c 3.887,-0.298 7.518,-1.159 10.879,-2.584 3.367,-1.425 6.135,-3.492 8.302,-6.19 2.165,-2.707 3.251,-6.31 3.251,-10.812 0,-6.755 -2.236,-11.93 -6.717,-15.539 -4.475,-3.603 -9.625,-5.404 -15.441,-5.404 -8.063,0 -14.15,2.659 -18.249,7.971 -4.111,5.312 -6.085,12.016 -5.935,20.091 l -30.374,0 c 0.302,-8.075 1.762,-15.449 4.374,-22.102 2.618,-6.647 6.287,-12.353 11.007,-17.116 4.711,-4.762 10.365,-8.437 16.948,-11.047 6.583,-2.606 13.921,-3.909 22.003,-3.909 6.284,0 12.571,0.939 18.856,2.809 6.29,1.873 11.935,4.682 16.954,8.425 5.016,3.743 9.093004,8.305 12.234004,13.701 3.141,5.39 4.72,11.601 4.72,18.633 0,7.639 -1.83,14.377 -5.479,20.217 -3.65,5.841 -9.120004,9.805 -16.413004,11.899 l 0,0.452 c 8.646,1.947 15.425004,6.14 20.351004,12.58 4.92,6.442 7.377,14.153 7.377,23.133 0,8.239 -1.609,15.577 -4.83,22.019 -3.224,6.444 -7.526,11.828 -12.918004,16.177 -5.388,4.338 -11.607,7.636 -18.65,9.877 -7.04,2.238 -14.38,3.366 -22.011,3.366 -8.84,0 -16.885,-1.275 -24.156,-3.817 -7.263,-2.558 -13.445,-6.267 -18.536,-11.149 -5.095,-4.876 -9.022,-10.83 -11.792,-17.872 -2.776,-7.039 -4.084,-15.118 -3.931,-24.245 l 30.373,0 c 0.146,4.192 0.821,8.193 2.027,12.007 1.2,3.816 2.929,7.111 5.18,9.877 2.251,2.767 5.06,4.981 8.44,6.627 3.376,1.64 7.391,2.461 12.04,2.461 7.203,0 13.285,-2.198 18.235,-6.601 4.955,-4.405 7.43,-10.413 7.43,-18.028 0,-5.978 -1.194,-10.534 -3.576,-13.668 -2.389,-3.139 -5.371,-5.41 -8.963,-6.836 -3.591,-1.416 -7.52,-2.237 -11.78,-2.459 -4.263,-0.226 -8.338,-0.342 -12.219,-0.342 l 0,-22.602 c 3.436,0.299 7.099,0.299 10.989,0"
     id="path22"
     style="fill:#1e76c0" />
  <path
     d="m 209.28562,21.0908 c 17.763,0 35.356,7.191 48.265,19.733 l 3.445,3.343 0,-26.978 -0.863,-0.606 c -14.763,-10.361 -31.042,-15.395 -49.769,-15.395 -47.928,0 -86.92,36.714 -86.92,81.841 0,44.458 38.992,80.626 86.92,80.626 17.491,0 35.153,-5.462 49.746,-15.374 l 0.886,-0.607 0,-26.894 -3.421,3.215 c -13.354,12.556 -30.801,19.757 -47.856,19.757 -34.729,0 -64.07,-28.086 -64.07,-61.332 0,-33.243 29.14,-61.329 63.637,-61.329"
     id="path26"
     style="fill:#706d6e" />
  <path
     d="m 261.27342,51.6357 0,62.703 27.412,-32.657 -27.412,-30.046 z"
     id="path30"
     style="fill:#1e76c0" />
  <path
     d="m 427.25882,162.5815 -64.496,-78.829 64.484,-78.621 -34.207,0 -47.298,57.809 -47.295,-57.809 -34.203,0 64.485,78.621 -64.5,78.829 33.87,0 47.643,-58.078 47.651,58.078 33.866,0 z"
     id="path34"
     style="fill:#706d6e" />
  <path
     d="m 440.10552,152.6538 c 1.197,0 3.299,0.226 3.299,-1.312 0,-0.994 -1.311,-1.174 -2.35,-1.174 l -2.575,0 0,2.486 1.626,0 z m 4.519,5.812 -1.626,0 -2.893,-4.456 -1.626,0 0,4.456 -1.356,0 0,-9.655 4.203,0 c 1.739,0 3.432,0.474 3.432,2.554 0,1.898 -1.333,2.602 -3.049,2.645 l 2.915,4.456 z m 3.298,-4.772 c 0,-4.16 -3.457,-7.462 -7.502,-7.462 -4.043,0 -7.5,3.302 -7.5,7.462 0,4.16 3.457,7.462 7.5,7.462 4.045,0 7.502,-3.302 7.502,-7.462 m -16.357,0 c 0,-4.905 3.909,-8.818 8.855,-8.818 4.95,0 8.857,3.913 8.857,8.818 0,4.905 -3.907,8.818 -8.857,8.818 -4.946,0 -8.855,-3.913 -8.855,-8.818"
     id="path38"
     style="fill:#5b6065" />
</svg>
